<?xml version="1.0" encoding="utf-8"?>
<!-- Generator: Adobe Illustrator 25.4.0, SVG Export Plug-In . SVG Version: 6.00 Build 0)  -->
<svg version="1.1" id="Layer_1" xmlns="http://www.w3.org/2000/svg" xmlns:xlink="http://www.w3.org/1999/xlink" x="0px" y="0px"
	 viewBox="0 0 283.46 283.46" style="enable-background:new 0 0 283.46 283.46;" xml:space="preserve">
<style type="text/css">
	.st0{fill:#1C4C9C;}
	.st1{fill:#FFFFFF;}
</style>
<rect class="st0" width="283.46" height="283.46"/>
<g>
	<g>
		<path class="st1" d="M27.58,108.77c-0.7-0.67-1.05-1.5-1.05-2.5c0-0.93,0.35-1.73,1.05-2.4c0.7-0.67,1.52-1,2.45-1
			c0.93,0,1.75,0.33,2.45,1c0.7,0.67,1.05,1.47,1.05,2.4c0,1-0.35,1.83-1.05,2.5c-0.7,0.67-1.52,1-2.45,1
			C29.1,109.77,28.28,109.44,27.58,108.77z M28.43,120.07h3.2v45h-3.2V120.07z"/>
		<path class="st1" d="M46.53,120.07h3.2v10c1.47-3.33,3.97-6.02,7.5-8.05c3.53-2.03,7.43-3.05,11.7-3.05
			c5.53,0,9.92,1.75,13.15,5.25c3.23,3.5,4.85,8.38,4.85,14.65v26.2h-3.2v-26.2c0-5.4-1.32-9.6-3.95-12.6
			c-2.63-3-6.32-4.5-11.05-4.5c-3.47,0-6.65,0.78-9.55,2.35c-2.9,1.57-5.2,3.72-6.9,6.45c-1.7,2.73-2.55,5.83-2.55,9.3v25.2h-3.2
			V120.07z"/>
		<path class="st1" d="M109.63,105.92c-2.13,1.23-3.82,2.93-5.05,5.1c-1.23,2.17-1.85,4.55-1.85,7.15v1.9h13.9v2.8h-13.9v42.2h-3.2
			v-46.9c0-3.13,0.75-5.98,2.25-8.55c1.5-2.57,3.57-4.6,6.2-6.1c2.63-1.5,5.52-2.25,8.65-2.25v2.8
			C114.1,104.07,111.76,104.69,109.63,105.92z"/>
		<path class="st1" d="M126.03,176.97v-5.1c2.2,3.47,4.7,6.05,7.5,7.75c2.8,1.7,6.07,2.55,9.8,2.55c3.8,0,7.05-0.8,9.75-2.4
			c2.7-1.6,4.75-3.78,6.15-6.55c1.4-2.77,2.1-5.85,2.1-9.25v-7.6c-1.6,3.13-4.02,5.55-7.25,7.25c-3.23,1.7-6.75,2.55-10.55,2.55
			c-3.8,0-7.17-0.83-10.1-2.5c-2.93-1.67-5.22-4-6.85-7c-1.63-3-2.45-6.47-2.45-10.4v-26.2h3.2v26.2c0,3.6,0.75,6.68,2.25,9.25
			c1.5,2.57,3.48,4.52,5.95,5.85c2.47,1.33,5.17,2,8.1,2c3.2,0,6.17-0.78,8.9-2.35c2.73-1.57,4.88-3.67,6.45-6.3
			c1.57-2.63,2.35-5.45,2.35-8.45v-26.2h3.2v43.6c0,4-0.82,7.62-2.45,10.85c-1.63,3.23-4.02,5.78-7.15,7.65
			c-3.13,1.87-6.87,2.8-11.2,2.8C136.26,184.97,130.36,182.3,126.03,176.97z"/>
		<path class="st1" d="M185.23,163.32c-3.67-2.23-6.53-5.2-8.6-8.9c-2.07-3.7-3.1-7.72-3.1-12.05c0-4.27,1.05-8.23,3.15-11.9
			c2.1-3.67,4.97-6.58,8.6-8.75c3.63-2.17,7.68-3.25,12.15-3.25c4.4,0,8.42,1.08,12.05,3.25c3.63,2.17,6.48,5.08,8.55,8.75
			c2.07,3.67,3.1,7.63,3.1,11.9c0,4.47-1,8.55-3,12.25c-2,3.7-4.78,6.63-8.35,8.8c-3.57,2.17-7.65,3.25-12.25,3.25
			C193,166.67,188.9,165.55,185.23,163.32z M207.93,160.97c3.13-1.93,5.58-4.52,7.35-7.75c1.77-3.23,2.65-6.78,2.65-10.65
			c0-3.8-0.9-7.33-2.7-10.6c-1.8-3.27-4.27-5.87-7.4-7.8c-3.13-1.93-6.6-2.9-10.4-2.9c-3.8,0-7.28,0.98-10.45,2.95
			c-3.17,1.97-5.67,4.58-7.5,7.85c-1.83,3.27-2.75,6.8-2.75,10.6c0,3.8,0.92,7.32,2.75,10.55c1.83,3.23,4.33,5.82,7.5,7.75
			c3.17,1.93,6.68,2.9,10.55,2.9C201.33,163.87,204.8,162.9,207.93,160.97z"/>
		<path class="st1" d="M233.53,164.52c-2.47-1.1-4.23-2.52-5.3-4.25v-5.3c1.27,2.87,3,4.98,5.2,6.35c2.2,1.37,5,2.05,8.4,2.05
			c3.27,0,5.9-1.02,7.9-3.05c2-2.03,3-4.65,3-7.85c0-2.73-0.57-4.85-1.7-6.35c-1.13-1.5-2.97-3.02-5.5-4.55l-3.8-2.2
			c-2.73-1.67-4.78-2.98-6.15-3.95c-1.37-0.97-2.45-2.07-3.25-3.3c-0.8-1.23-1.2-2.68-1.2-4.35c0-2.67,0.93-4.8,2.8-6.4
			c1.87-1.6,4.3-2.4,7.3-2.4c3.67,0,6.73,0.83,9.2,2.5v4.4c-2.07-2.73-5.03-4.1-8.9-4.1c-2.13,0-3.87,0.53-5.2,1.6
			c-1.33,1.07-2,2.43-2,4.1c0,1.47,0.4,2.75,1.2,3.85c0.8,1.1,1.92,2.12,3.35,3.05c1.43,0.93,3.82,2.33,7.15,4.2
			c3.4,1.93,5.9,3.92,7.5,5.95c1.6,2.03,2.4,4.68,2.4,7.95c0,4.13-1.35,7.45-4.05,9.95c-2.7,2.5-5.98,3.75-9.85,3.75
			C238.83,166.17,236,165.62,233.53,164.52z"/>
	</g>
</g>
</svg>
